<svg width="395" height="117" viewBox="0 0 395 117" fill="none" xmlns="http://www.w3.org/2000/svg">
<path d="M72.875 30.75L52.25 74.75H93.5L72.875 30.75Z" fill="#182030" fill-opacity="0.05" stroke="#232C3D" stroke-width="3.4375" stroke-linejoin="round"/>
<path d="M33 66.5L61.6 54.125" stroke="#232C3D" stroke-width="4.125" stroke-linecap="round"/>
<path d="M84.15 54.125L114.125 30.75V39L84.15 54.125Z" fill="#E8274B"/>
<path d="M84.15 54.125L114.125 39V47.25L84.15 54.125Z" fill="#F28C0D"/>
<path d="M84.15 54.125L114.125 47.25V55.5L84.15 54.125Z" fill="#EEC513"/>
<path d="M84.15 54.125L114.125 55.5V63.75L84.15 54.125Z" fill="#22B566"/>
<path d="M84.15 54.125L114.125 63.75V72L84.15 54.125Z" fill="#1E9BE0"/>
<path d="M84.15 54.125L114.125 72V80.25L84.15 54.125Z" fill="#8B63EF"/>
<path d="M90.75 17C91.9875 21.2625 93.3625 22.6375 97.625 23.875C93.3625 25.1125 91.9875 26.4875 90.75 30.75C89.5125 26.4875 88.1375 25.1125 83.875 23.875C88.1375 22.6375 89.5125 21.2625 90.75 17Z" fill="#F2B90D"/>
<path d="M101.062 28C101.75 30.3375 102.575 31.1625 104.912 31.85C102.575 32.5375 101.75 33.3625 101.062 35.7C100.375 33.3625 99.55 32.5375 97.2125 31.85C99.55 31.1625 100.375 30.3375 101.062 28Z" fill="#232C3D" fill-opacity="0.75"/>
<path d="M146.2 52V23.2H151.02V47.48H163.74V52H146.2ZM183.128 52.6C180.835 52.6 178.815 52.1333 177.068 51.2C175.335 50.2667 173.975 48.9533 172.988 47.26C172.015 45.5667 171.528 43.58 171.528 41.3V23.24L176.408 23.2V41.18C176.408 42.26 176.588 43.2267 176.948 44.08C177.321 44.9333 177.821 45.66 178.448 46.26C179.075 46.8467 179.795 47.2933 180.608 47.6C181.421 47.9067 182.261 48.06 183.128 48.06C184.021 48.06 184.868 47.9067 185.668 47.6C186.481 47.28 187.201 46.8267 187.828 46.24C188.455 45.64 188.948 44.9133 189.308 44.06C189.668 43.2067 189.848 42.2467 189.848 41.18V23.2H194.728V41.3C194.728 43.58 194.235 45.5667 193.248 47.26C192.275 48.9533 190.915 50.2667 189.168 51.2C187.435 52.1333 185.421 52.6 183.128 52.6ZM204.717 52V23.2H209.057L219.017 43.6L228.977 23.2H233.317V52H228.817V33.54L219.977 52H218.057L209.237 33.54V52H204.717ZM243.736 52V23.2H248.556V52H243.736ZM258.947 52V23.2H263.827L277.187 43.5V23.2H282.067V52H277.187L263.827 31.7V52H258.947ZM290.058 52L299.138 23.2H306.198L315.278 52H310.318L302.078 26.16H303.158L295.018 52H290.058ZM295.118 45.76V41.26H310.238V45.76H295.118Z" fill="#1A2233"/>
<path d="M376.624 65H145.376C144.616 65 144 65.6716 144 66.5C144 67.3284 144.616 68 145.376 68H376.624C377.384 68 378 67.3284 378 66.5C378 65.6716 377.384 65 376.624 65Z" fill="url(#paint0_linear_1_2)"/>
<path d="M144.28 94L147.458 83.92H149.929L153.107 94H151.371L148.487 84.956H148.865L146.016 94H144.28ZM146.051 91.816V90.241H151.343V91.816H146.051ZM157.033 94V83.92H158.72V94H157.033ZM168.799 94V83.92H170.486V94H168.799ZM175.103 94V83.92H176.811L181.487 91.025V83.92H183.195V94H181.487L176.811 86.895V94H175.103ZM189.94 94L186.762 83.92H188.498L191.158 92.362L193.853 83.92H195.589L192.411 94H189.94ZM199.161 94V83.92H205.671V85.502H200.848V87.987H204.831V89.569H200.848V92.418H205.671V94H199.161ZM213.505 94.21C212.768 94.21 212.103 94.0817 211.51 93.825C210.922 93.5683 210.437 93.202 210.054 92.726C209.676 92.2453 209.436 91.676 209.333 91.018L211.083 90.752C211.233 91.3493 211.538 91.8113 212 92.138C212.467 92.4647 213.004 92.628 213.61 92.628C213.97 92.628 214.308 92.572 214.625 92.46C214.943 92.348 215.199 92.1847 215.395 91.97C215.596 91.7553 215.696 91.4917 215.696 91.179C215.696 91.039 215.673 90.9107 215.626 90.794C215.58 90.6727 215.51 90.5653 215.416 90.472C215.328 90.3787 215.211 90.2947 215.066 90.22C214.926 90.1407 214.763 90.073 214.576 90.017L211.972 89.247C211.748 89.1817 211.506 89.0953 211.244 88.988C210.988 88.876 210.743 88.7243 210.509 88.533C210.281 88.337 210.092 88.0897 209.942 87.791C209.798 87.4877 209.725 87.1143 209.725 86.671C209.725 86.0223 209.889 85.4787 210.215 85.04C210.547 84.5967 210.99 84.2653 211.545 84.046C212.105 83.8267 212.726 83.7193 213.407 83.724C214.098 83.7287 214.714 83.8477 215.255 84.081C215.797 84.3097 216.249 84.6433 216.613 85.082C216.977 85.5207 217.234 86.0503 217.383 86.671L215.57 86.986C215.496 86.6313 215.351 86.3303 215.136 86.083C214.926 85.831 214.667 85.6397 214.359 85.509C214.056 85.3783 213.732 85.3083 213.386 85.299C213.05 85.2943 212.738 85.3457 212.448 85.453C212.164 85.5557 211.933 85.705 211.755 85.901C211.583 86.097 211.496 86.3257 211.496 86.587C211.496 86.8343 211.571 87.0373 211.72 87.196C211.87 87.35 212.054 87.4737 212.273 87.567C212.497 87.6557 212.724 87.7303 212.952 87.791L214.758 88.295C215.006 88.3603 215.283 88.449 215.591 88.561C215.899 88.673 216.196 88.8293 216.48 89.03C216.765 89.2307 216.998 89.4943 217.18 89.821C217.367 90.1477 217.46 90.563 217.46 91.067C217.46 91.5897 217.351 92.0493 217.131 92.446C216.917 92.838 216.625 93.1647 216.256 93.426C215.888 93.6873 215.465 93.8833 214.989 94.014C214.518 94.1447 214.023 94.21 213.505 94.21ZM223.917 94V85.502H220.655V83.92H228.866V85.502H225.604V94H223.917ZM232.506 94V83.92H234.025L237.511 91.06L240.997 83.92H242.516V94H240.941V87.539L237.847 94H237.175L234.088 87.539V94H232.506ZM247.002 94V83.92H253.512V85.502H248.689V87.987H252.672V89.569H248.689V92.418H253.512V94H247.002ZM257.712 94V83.92H259.42L264.096 91.025V83.92H265.804V94H264.096L259.42 86.895V94H257.712ZM272.703 94V85.502H269.441V83.92H277.652V85.502H274.39V94H272.703ZM286.19 94V83.92H290.355C290.453 83.92 290.579 83.9247 290.733 83.934C290.887 83.9387 291.029 83.9527 291.16 83.976C291.743 84.0647 292.224 84.2583 292.602 84.557C292.984 84.8557 293.267 85.2337 293.449 85.691C293.635 86.1437 293.729 86.6477 293.729 87.203C293.729 88.0243 293.521 88.7313 293.106 89.324C292.69 89.912 292.053 90.276 291.195 90.416L290.474 90.479H287.877V94H286.19ZM291.979 94L289.991 89.898L291.706 89.52L293.89 94H291.979ZM287.877 88.904H290.285C290.378 88.904 290.483 88.8993 290.6 88.89C290.716 88.8807 290.824 88.862 290.922 88.834C291.202 88.764 291.421 88.6403 291.58 88.463C291.743 88.2857 291.857 88.085 291.923 87.861C291.993 87.637 292.028 87.4177 292.028 87.203C292.028 86.9883 291.993 86.769 291.923 86.545C291.857 86.3163 291.743 86.1133 291.58 85.936C291.421 85.7587 291.202 85.635 290.922 85.565C290.824 85.537 290.716 85.5207 290.6 85.516C290.483 85.5067 290.378 85.502 290.285 85.502H287.877V88.904ZM297.952 94V83.92H304.462V85.502H299.639V87.987H303.622V89.569H299.639V92.418H304.462V94H297.952ZM312.297 94.21C311.559 94.21 310.894 94.0817 310.302 93.825C309.714 93.5683 309.228 93.202 308.846 92.726C308.468 92.2453 308.227 91.676 308.125 91.018L309.875 90.752C310.024 91.3493 310.33 91.8113 310.792 92.138C311.258 92.4647 311.795 92.628 312.402 92.628C312.761 92.628 313.099 92.572 313.417 92.46C313.734 92.348 313.991 92.1847 314.187 91.97C314.387 91.7553 314.488 91.4917 314.488 91.179C314.488 91.039 314.464 90.9107 314.418 90.794C314.371 90.6727 314.301 90.5653 314.208 90.472C314.119 90.3787 314.002 90.2947 313.858 90.22C313.718 90.1407 313.554 90.073 313.368 90.017L310.764 89.247C310.54 89.1817 310.297 89.0953 310.036 88.988C309.779 88.876 309.534 88.7243 309.301 88.533C309.072 88.337 308.883 88.0897 308.734 87.791C308.589 87.4877 308.517 87.1143 308.517 86.671C308.517 86.0223 308.68 85.4787 309.007 85.04C309.338 84.5967 309.781 84.2653 310.337 84.046C310.897 83.8267 311.517 83.7193 312.199 83.724C312.889 83.7287 313.505 83.8477 314.047 84.081C314.588 84.3097 315.041 84.6433 315.405 85.082C315.769 85.5207 316.025 86.0503 316.175 86.671L314.362 86.986C314.287 86.6313 314.142 86.3303 313.928 86.083C313.718 85.831 313.459 85.6397 313.151 85.509C312.847 85.3783 312.523 85.3083 312.178 85.299C311.842 85.2943 311.529 85.3457 311.24 85.453C310.955 85.5557 310.724 85.705 310.547 85.901C310.374 86.097 310.288 86.3257 310.288 86.587C310.288 86.8343 310.362 87.0373 310.512 87.196C310.661 87.35 310.845 87.4737 311.065 87.567C311.289 87.6557 311.515 87.7303 311.744 87.791L313.55 88.295C313.797 88.3603 314.075 88.449 314.383 88.561C314.691 88.673 314.987 88.8293 315.272 89.03C315.556 89.2307 315.79 89.4943 315.972 89.821C316.158 90.1477 316.252 90.563 316.252 91.067C316.252 91.5897 316.142 92.0493 315.923 92.446C315.708 92.838 315.416 93.1647 315.048 93.426C314.679 93.6873 314.257 93.8833 313.781 94.014C313.309 94.1447 312.815 94.21 312.297 94.21ZM320.287 94V83.92H326.797V85.502H321.974V87.987H325.957V89.569H321.974V92.418H326.797V94H320.287ZM330.296 94L333.474 83.92H335.945L339.123 94H337.387L334.503 84.956H334.881L332.032 94H330.296ZM332.067 91.816V90.241H337.359V91.816H332.067ZM342.909 94V83.92H347.074C347.172 83.92 347.298 83.9247 347.452 83.934C347.606 83.9387 347.748 83.9527 347.879 83.976C348.462 84.0647 348.943 84.2583 349.321 84.557C349.703 84.8557 349.986 85.2337 350.168 85.691C350.354 86.1437 350.448 86.6477 350.448 87.203C350.448 88.0243 350.24 88.7313 349.825 89.324C349.409 89.912 348.772 90.276 347.914 90.416L347.193 90.479H344.596V94H342.909ZM348.698 94L346.71 89.898L348.425 89.52L350.609 94H348.698ZM344.596 88.904H347.004C347.097 88.904 347.202 88.8993 347.319 88.89C347.435 88.8807 347.543 88.862 347.641 88.834C347.921 88.764 348.14 88.6403 348.299 88.463C348.462 88.2857 348.577 88.085 348.642 87.861C348.712 87.637 348.747 87.4177 348.747 87.203C348.747 86.9883 348.712 86.769 348.642 86.545C348.577 86.3163 348.462 86.1133 348.299 85.936C348.14 85.7587 347.921 85.635 347.641 85.565C347.543 85.537 347.435 85.5207 347.319 85.516C347.202 85.5067 347.097 85.502 347.004 85.502H344.596V88.904ZM358.579 94.21C357.571 94.21 356.707 93.9907 355.989 93.552C355.27 93.1087 354.717 92.4927 354.33 91.704C353.947 90.9153 353.756 90.0007 353.756 88.96C353.756 87.9193 353.947 87.0047 354.33 86.216C354.717 85.4273 355.27 84.8137 355.989 84.375C356.707 83.9317 357.571 83.71 358.579 83.71C359.741 83.71 360.709 84.0017 361.484 84.585C362.258 85.1637 362.802 85.9453 363.115 86.93L361.414 87.399C361.218 86.741 360.884 86.2277 360.413 85.859C359.941 85.4857 359.33 85.299 358.579 85.299C357.902 85.299 357.337 85.4507 356.885 85.754C356.437 86.0573 356.098 86.4843 355.87 87.035C355.646 87.581 355.531 88.2227 355.527 88.96C355.527 89.6973 355.639 90.3413 355.863 90.892C356.091 91.438 356.432 91.8627 356.885 92.166C357.337 92.4693 357.902 92.621 358.579 92.621C359.33 92.621 359.941 92.4343 360.413 92.061C360.884 91.6877 361.218 91.1743 361.414 90.521L363.115 90.99C362.802 91.9747 362.258 92.7587 361.484 93.342C360.709 93.9207 359.741 94.21 358.579 94.21ZM367.171 94V83.92H368.858V88.162H373.632V83.92H375.312V94H373.632V89.744H368.858V94H367.171Z" fill="#5C6577"/>
<defs>
<linearGradient id="paint0_linear_1_2" x1="144" y1="65" x2="378" y2="65" gradientUnits="userSpaceOnUse">
<stop stop-color="#E8274B"/>
<stop offset="0.35" stop-color="#EEC513"/>
<stop offset="0.7" stop-color="#1E9BE0"/>
<stop offset="1" stop-color="#8B63EF"/>
</linearGradient>
</defs>
</svg>
