<svg width="229" height="80" viewBox="0 0 229 80" fill="none" xmlns="http://www.w3.org/2000/svg">
<path d="M19.0322 10.6364L23.9541 26.108H24.143L29.0748 10.6364H33.8475L26.8276 31H21.2794L14.2495 10.6364H19.0322ZM37.9785 31V10.6364H51.7001V14.1861H42.2839V19.0384H50.9942V22.5881H42.2839V27.4503H51.7399V31H37.9785ZM56.8031 31V10.6364H61.1085V19.6151H61.3769L68.705 10.6364H73.8656L66.3087 19.7543L73.955 31H68.8045L63.2264 22.6278L61.1085 25.2131V31H56.8031ZM77.0122 14.1861V10.6364H93.7366V14.1861H87.5022V31H83.2466V14.1861H77.0122ZM115.954 20.8182C115.954 23.0388 115.533 24.928 114.691 26.4858C113.856 28.0436 112.716 29.2334 111.271 30.0554C109.833 30.8707 108.215 31.2784 106.419 31.2784C104.609 31.2784 102.985 30.8674 101.547 30.0455C100.108 29.2235 98.9713 28.0336 98.1361 26.4759C97.3008 24.9181 96.8832 23.0322 96.8832 20.8182C96.8832 18.5975 97.3008 16.7083 98.1361 15.1506C98.9713 13.5928 100.108 12.4062 101.547 11.5909C102.985 10.7689 104.609 10.358 106.419 10.358C108.215 10.358 109.833 10.7689 111.271 11.5909C112.716 12.4062 113.856 13.5928 114.691 15.1506C115.533 16.7083 115.954 18.5975 115.954 20.8182ZM111.589 20.8182C111.589 19.3797 111.374 18.1667 110.943 17.179C110.519 16.1913 109.919 15.4422 109.143 14.9318C108.368 14.4214 107.459 14.1662 106.419 14.1662C105.378 14.1662 104.47 14.4214 103.694 14.9318C102.919 15.4422 102.316 16.1913 101.885 17.179C101.46 18.1667 101.248 19.3797 101.248 20.8182C101.248 22.2566 101.46 23.4697 101.885 24.4574C102.316 25.4451 102.919 26.1941 103.694 26.7045C104.47 27.215 105.378 27.4702 106.419 27.4702C107.459 27.4702 108.368 27.215 109.143 26.7045C109.919 26.1941 110.519 25.4451 110.943 24.4574C111.374 23.4697 111.589 22.2566 111.589 20.8182ZM120.824 31V10.6364H128.858C130.395 10.6364 131.708 10.9115 132.795 11.4616C133.889 12.0052 134.721 12.7775 135.291 13.7784C135.868 14.7727 136.156 15.9427 136.156 17.2884C136.156 18.6406 135.864 19.804 135.281 20.7784C134.698 21.7462 133.852 22.4886 132.745 23.0057C131.645 23.5227 130.313 23.7812 128.748 23.7812H123.369V20.321H128.052C128.874 20.321 129.557 20.2083 130.101 19.983C130.644 19.7576 131.048 19.4195 131.314 18.9688C131.585 18.518 131.721 17.9579 131.721 17.2884C131.721 16.6122 131.585 16.0421 131.314 15.5781C131.048 15.1141 130.641 14.7628 130.091 14.5241C129.547 14.2789 128.861 14.1562 128.032 14.1562H125.129V31H120.824ZM131.821 21.733L136.882 31H132.129L127.177 21.733H131.821ZM143.275 31.2585C142.619 31.2585 142.055 31.0265 141.584 30.5625C141.12 30.0919 140.888 29.5284 140.888 28.8722C140.888 28.2225 141.12 27.6657 141.584 27.2017C142.055 26.7377 142.619 26.5057 143.275 26.5057C143.911 26.5057 144.468 26.7377 144.945 27.2017C145.423 27.6657 145.661 28.2225 145.661 28.8722C145.661 29.3097 145.549 29.7107 145.323 30.0753C145.104 30.4332 144.816 30.7216 144.458 30.9403C144.1 31.1525 143.706 31.2585 143.275 31.2585ZM154.408 31H149.795L156.825 10.6364H162.373L169.393 31H164.779L159.678 15.2898H159.519L154.408 31ZM154.12 22.9957H165.018V26.3565H154.12V22.9957ZM177.829 10.6364V31H173.524V10.6364H177.829Z" fill="black"/>
<path d="M14.9981 62H13.8901L17.0947 53.2727H18.1856L21.3901 62H20.2822L17.6742 54.6534H17.6061L14.9981 62ZM15.4072 58.5909H19.8731V59.5284H15.4072V58.5909ZM25.7263 53.2727V62H24.6695V53.2727H25.7263ZM36.1171 53.2727V62H35.0603V53.2727H36.1171ZM47.0765 53.2727V62H46.0538L41.2981 55.1477H41.2129V62H40.1561V53.2727H41.1788L45.9515 60.142H46.0368V53.2727H47.0765ZM51.4692 53.2727L54.0601 60.6193H54.1624L56.7533 53.2727H57.8612L54.6567 62H53.5658L50.3612 53.2727H51.4692ZM61.1406 62V53.2727H66.4077V54.2102H62.1974V57.1591H66.1349V58.0966H62.1974V61.0625H66.4758V62H61.1406ZM75.0052 55.4545C74.9541 55.0227 74.7467 54.6875 74.3831 54.4489C74.0194 54.2102 73.5734 54.0909 73.045 54.0909C72.6586 54.0909 72.3206 54.1534 72.0308 54.2784C71.7439 54.4034 71.5194 54.5753 71.3575 54.794C71.1984 55.0128 71.1189 55.2614 71.1189 55.5398C71.1189 55.7727 71.1743 55.973 71.285 56.1406C71.3987 56.3054 71.5436 56.4432 71.7197 56.554C71.8958 56.6619 72.0805 56.7514 72.2737 56.8224C72.4669 56.8906 72.6444 56.946 72.8064 56.9886L73.6927 57.2273C73.92 57.2869 74.1728 57.3693 74.4512 57.4744C74.7325 57.5795 75.001 57.723 75.2566 57.9048C75.5152 58.0838 75.7282 58.3139 75.8958 58.5952C76.0635 58.8764 76.1473 59.2216 76.1473 59.6307C76.1473 60.1023 76.0237 60.5284 75.7765 60.9091C75.5322 61.2898 75.1743 61.5923 74.7027 61.8168C74.2339 62.0412 73.6643 62.1534 72.9939 62.1534C72.3689 62.1534 71.8277 62.0526 71.3703 61.8509C70.9157 61.6491 70.5578 61.3679 70.2964 61.0071C70.0379 60.6463 69.8916 60.2273 69.8575 59.75H70.9484C70.9768 60.0795 71.0876 60.3523 71.2808 60.5682C71.4768 60.7812 71.724 60.9403 72.0223 61.0455C72.3234 61.1477 72.6473 61.1989 72.9939 61.1989C73.3973 61.1989 73.7595 61.1335 74.0805 61.0028C74.4015 60.8693 74.6558 60.6847 74.8433 60.4489C75.0308 60.2102 75.1245 59.9318 75.1245 59.6136C75.1245 59.3239 75.0436 59.0881 74.8816 58.9062C74.7197 58.7244 74.5066 58.5767 74.2424 58.4631C73.9782 58.3494 73.6927 58.25 73.3859 58.1648L72.312 57.858C71.6302 57.6619 71.0904 57.3821 70.6927 57.0185C70.295 56.6548 70.0961 56.179 70.0961 55.5909C70.0961 55.1023 70.2282 54.6761 70.4924 54.3125C70.7595 53.946 71.1174 53.6619 71.5663 53.4602C72.018 53.2557 72.5223 53.1534 73.0791 53.1534C73.6416 53.1534 74.1416 53.2543 74.5791 53.456C75.0166 53.6548 75.3632 53.9276 75.6189 54.2741C75.8774 54.6207 76.0137 55.0142 76.0279 55.4545H75.0052ZM79.3276 54.2102V53.2727H85.873V54.2102H83.1287V62H82.0719V54.2102H79.3276ZM89.4241 53.2727H90.6854L93.6513 60.517H93.7536L96.7195 53.2727H97.9809V62H96.9922V55.3693H96.907L94.1797 62H93.2252L90.4979 55.3693H90.4127V62H89.4241V53.2727ZM102.02 62V53.2727H107.287V54.2102H103.077V57.1591H107.014V58.0966H103.077V61.0625H107.355V62H102.02ZM118.032 53.2727V62H117.009L112.254 55.1477H112.169V62H111.112V53.2727H112.134L116.907 60.142H116.992V53.2727H118.032ZM121.59 54.2102V53.2727H128.135V54.2102H125.391V62H124.334V54.2102H121.59ZM136.981 62V53.2727H139.93C140.612 53.2727 141.171 53.3892 141.609 53.6222C142.046 53.8523 142.37 54.169 142.581 54.5724C142.791 54.9759 142.896 55.4347 142.896 55.9489C142.896 56.4631 142.791 56.919 142.581 57.3168C142.37 57.7145 142.048 58.027 141.613 58.2543C141.179 58.4787 140.623 58.5909 139.947 58.5909H137.561V57.6364H139.913C140.379 57.6364 140.754 57.5682 141.038 57.4318C141.325 57.2955 141.532 57.1023 141.66 56.8523C141.791 56.5994 141.856 56.2983 141.856 55.9489C141.856 55.5994 141.791 55.294 141.66 55.0327C141.529 54.7713 141.321 54.5696 141.034 54.4276C140.747 54.2827 140.367 54.2102 139.896 54.2102H138.038V62H136.981ZM141.089 58.0795L143.237 62H142.009L139.896 58.0795H141.089ZM146.577 62V53.2727H151.844V54.2102H147.634V57.1591H151.571V58.0966H147.634V61.0625H151.912V62H146.577ZM160.441 55.4545C160.39 55.0227 160.183 54.6875 159.819 54.4489C159.456 54.2102 159.01 54.0909 158.481 54.0909C158.095 54.0909 157.757 54.1534 157.467 54.2784C157.18 54.4034 156.956 54.5753 156.794 54.794C156.635 55.0128 156.555 55.2614 156.555 55.5398C156.555 55.7727 156.611 55.973 156.721 56.1406C156.835 56.3054 156.98 56.4432 157.156 56.554C157.332 56.6619 157.517 56.7514 157.71 56.8224C157.903 56.8906 158.081 56.946 158.243 56.9886L159.129 57.2273C159.356 57.2869 159.609 57.3693 159.887 57.4744C160.169 57.5795 160.437 57.723 160.693 57.9048C160.951 58.0838 161.164 58.3139 161.332 58.5952C161.5 58.8764 161.584 59.2216 161.584 59.6307C161.584 60.1023 161.46 60.5284 161.213 60.9091C160.968 61.2898 160.611 61.5923 160.139 61.8168C159.67 62.0412 159.101 62.1534 158.43 62.1534C157.805 62.1534 157.264 62.0526 156.807 61.8509C156.352 61.6491 155.994 61.3679 155.733 61.0071C155.474 60.6463 155.328 60.2273 155.294 59.75H156.385C156.413 60.0795 156.524 60.3523 156.717 60.5682C156.913 60.7812 157.16 60.9403 157.459 61.0455C157.76 61.1477 158.084 61.1989 158.43 61.1989C158.834 61.1989 159.196 61.1335 159.517 61.0028C159.838 60.8693 160.092 60.6847 160.28 60.4489C160.467 60.2102 160.561 59.9318 160.561 59.6136C160.561 59.3239 160.48 59.0881 160.318 58.9062C160.156 58.7244 159.943 58.5767 159.679 58.4631C159.414 58.3494 159.129 58.25 158.822 58.1648L157.748 57.858C157.066 57.6619 156.527 57.3821 156.129 57.0185C155.731 56.6548 155.532 56.179 155.532 55.5909C155.532 55.1023 155.664 54.6761 155.929 54.3125C156.196 53.946 156.554 53.6619 157.003 53.4602C157.454 53.2557 157.959 53.1534 158.515 53.1534C159.078 53.1534 159.578 53.2543 160.015 53.456C160.453 53.6548 160.799 53.9276 161.055 54.2741C161.314 54.6207 161.45 55.0142 161.464 55.4545H160.441ZM165.241 62V53.2727H170.508V54.2102H166.298V57.1591H170.235V58.0966H166.298V61.0625H170.576V62H165.241ZM174.691 62H173.583L176.788 53.2727H177.878L181.083 62H179.975L177.367 54.6534H177.299L174.691 62ZM175.1 58.5909H179.566V59.5284H175.1V58.5909ZM184.362 62V53.2727H187.311C187.993 53.2727 188.553 53.3892 188.99 53.6222C189.428 53.8523 189.752 54.169 189.962 54.5724C190.172 54.9759 190.277 55.4347 190.277 55.9489C190.277 56.4631 190.172 56.919 189.962 57.3168C189.752 57.7145 189.429 58.027 188.994 58.2543C188.56 58.4787 188.004 58.5909 187.328 58.5909H184.942V57.6364H187.294C187.76 57.6364 188.135 57.5682 188.419 57.4318C188.706 57.2955 188.913 57.1023 189.041 56.8523C189.172 56.5994 189.237 56.2983 189.237 55.9489C189.237 55.5994 189.172 55.294 189.041 55.0327C188.911 54.7713 188.702 54.5696 188.415 54.4276C188.128 54.2827 187.749 54.2102 187.277 54.2102H185.419V62H184.362ZM188.47 58.0795L190.618 62H189.391L187.277 58.0795H188.47ZM200.981 56H199.924C199.862 55.696 199.752 55.429 199.596 55.1989C199.442 54.9688 199.255 54.7756 199.033 54.6193C198.815 54.4602 198.572 54.3409 198.305 54.2614C198.038 54.1818 197.759 54.142 197.469 54.142C196.941 54.142 196.462 54.2756 196.033 54.5426C195.607 54.8097 195.268 55.2031 195.015 55.723C194.765 56.2429 194.64 56.8807 194.64 57.6364C194.64 58.392 194.765 59.0298 195.015 59.5497C195.268 60.0696 195.607 60.4631 196.033 60.7301C196.462 60.9972 196.941 61.1307 197.469 61.1307C197.759 61.1307 198.038 61.0909 198.305 61.0114C198.572 60.9318 198.815 60.8139 199.033 60.6577C199.255 60.4986 199.442 60.304 199.596 60.0739C199.752 59.8409 199.862 59.5739 199.924 59.2727H200.981C200.901 59.7187 200.756 60.1179 200.546 60.4702C200.336 60.8224 200.075 61.1222 199.762 61.3693C199.45 61.6136 199.099 61.7997 198.71 61.9276C198.323 62.0554 197.91 62.1193 197.469 62.1193C196.725 62.1193 196.063 61.9375 195.484 61.5739C194.904 61.2102 194.448 60.6932 194.116 60.0227C193.783 59.3523 193.617 58.5568 193.617 57.6364C193.617 56.7159 193.783 55.9205 194.116 55.25C194.448 54.5795 194.904 54.0625 195.484 53.6989C196.063 53.3352 196.725 53.1534 197.469 53.1534C197.91 53.1534 198.323 53.2173 198.71 53.3452C199.099 53.473 199.45 53.6605 199.762 53.9077C200.075 54.152 200.336 54.4503 200.546 54.8026C200.756 55.152 200.901 55.5511 200.981 56ZM204.609 62V53.2727H205.665V57.1591H210.319V53.2727H211.376V62H210.319V58.0966H205.665V62H204.609Z" fill="#6B7280"/>
<path d="M216.47 38H15.53C14.685 38 14 38.6716 14 39.5C14 40.3284 14.685 41 15.53 41H216.47C217.315 41 218 40.3284 218 39.5C218 38.6716 217.315 38 216.47 38Z" fill="url(#paint0_linear_5_2)"/>
<defs>
<linearGradient id="paint0_linear_5_2" x1="14" y1="38" x2="218" y2="38" gradientUnits="userSpaceOnUse">
<stop stop-color="#FF2D55"/>
<stop offset="0.16" stop-color="#FF7A00"/>
<stop offset="0.33" stop-color="#FFC300"/>
<stop offset="0.5" stop-color="#7BC043"/>
<stop offset="0.67" stop-color="#00B8D9"/>
<stop offset="0.84" stop-color="#2F6BFF"/>
<stop offset="1" stop-color="#6F3CFF"/>
</linearGradient>
</defs>
</svg>
